<svg xmlns="http://www.w3.org/2000/svg" xmlns:xlink="http://www.w3.org/1999/xlink" width="43" zoomAndPan="magnify" viewBox="0 0 32.25 30.000001" height="40" preserveAspectRatio="xMidYMid meet" version="1.0"><defs><clipPath id="6cbf8fcc51"><path d="M 5.238281 0 L 26.285156 0 L 26.285156 29.03125 L 5.238281 29.03125 Z M 5.238281 0 " clip-rule="nonzero"/></clipPath></defs><g clip-path="url(#6cbf8fcc51)"><path fill="#e4c590" d="M 14.078125 23.613281 C 13.667969 22.414062 12.914062 21.359375 11.910156 20.582031 L 9.445312 18.667969 C 6.914062 16.703125 5.375 13.722656 5.242188 10.519531 C 5.242188 4.710938 9.953125 0 15.761719 0 C 21.570312 0 26.28125 4.710938 26.28125 10.519531 C 26.148438 13.722656 24.609375 16.703125 22.078125 18.667969 L 19.613281 20.582031 C 18.609375 21.359375 17.855469 22.414062 17.445312 23.613281 L 17.15625 24.460938 C 16.949219 25.054688 16.390625 25.457031 15.761719 25.457031 C 15.132812 25.457031 14.574219 25.054688 14.367188 24.460938 Z M 15.761719 29.03125 C 13.4375 29.03125 11.554688 28.75 11.554688 28.402344 C 11.554688 28.050781 13.4375 27.769531 15.761719 27.769531 C 18.085938 27.769531 19.96875 28.050781 19.96875 28.402344 C 19.96875 28.75 18.085938 29.03125 15.761719 29.03125 Z M 15.761719 18.722656 C 20.410156 18.722656 24.175781 14.957031 24.175781 10.308594 C 24.175781 5.660156 20.410156 1.894531 15.761719 1.894531 C 11.113281 1.894531 7.347656 5.660156 7.347656 10.308594 C 7.347656 14.957031 11.113281 18.722656 15.761719 18.722656 Z M 14.230469 9.582031 L 14.609375 16.171875 C 14.632812 16.5625 14.210938 16.898438 13.730469 16.921875 C 13.253906 16.941406 12.796875 16.640625 12.773438 16.25 C 12.773438 16.222656 12.773438 16.195312 12.773438 16.171875 L 13.15625 9.582031 C 12.480469 9.433594 12.183594 8.832031 12.183594 8.113281 L 12.183594 4.691406 C 12.183594 4.539062 12.308594 4.417969 12.457031 4.417969 C 12.609375 4.417969 12.730469 4.539062 12.730469 4.691406 L 12.730469 7.480469 C 12.730469 7.554688 12.792969 7.617188 12.871094 7.617188 C 12.945312 7.617188 13.007812 7.554688 13.007812 7.480469 L 13.007812 4.691406 C 13.007812 4.539062 13.128906 4.417969 13.28125 4.417969 C 13.433594 4.417969 13.554688 4.539062 13.554688 4.691406 L 13.554688 7.480469 C 13.554688 7.554688 13.617188 7.617188 13.691406 7.617188 C 13.769531 7.617188 13.828125 7.554688 13.828125 7.480469 L 13.828125 4.691406 C 13.828125 4.539062 13.953125 4.417969 14.101562 4.417969 C 14.253906 4.417969 14.375 4.539062 14.375 4.691406 L 14.375 7.480469 C 14.375 7.554688 14.4375 7.617188 14.515625 7.617188 C 14.589844 7.617188 14.652344 7.554688 14.652344 7.480469 L 14.652344 4.691406 C 14.652344 4.539062 14.773438 4.417969 14.925781 4.417969 C 15.078125 4.417969 15.199219 4.539062 15.199219 4.691406 L 15.199219 8.113281 C 15.199219 8.832031 14.902344 9.433594 14.230469 9.582031 Z M 19.546875 11.339844 L 19.546875 16.054688 C 19.546875 16.53125 19.117188 16.921875 18.582031 16.921875 C 18.046875 16.921875 17.613281 16.53125 17.613281 16.054688 L 17.613281 11.726562 L 16.980469 11.515625 L 16.980469 6.910156 C 16.980469 5.535156 18.015625 4.417969 19.546875 4.417969 Z M 19.546875 11.339844 " fill-opacity="1" fill-rule="nonzero"/></g></svg>