<svg xmlns="http://www.w3.org/2000/svg" xmlns:xlink="http://www.w3.org/1999/xlink" width="160" zoomAndPan="magnify" viewBox="0 0 120 37.5" height="50" preserveAspectRatio="xMidYMid meet" version="1.0"><defs><g/><clipPath id="e47117f96a"><path d="M 2.640625 1.851562 L 27.0625 1.851562 L 27.0625 35.15625 L 2.640625 35.15625 Z M 2.640625 1.851562 " clip-rule="nonzero"/></clipPath></defs><g clip-path="url(#e47117f96a)"><path fill="#e4c590" d="M 12.898438 28.941406 C 12.421875 27.5625 11.546875 26.355469 10.382812 25.460938 L 7.523438 23.265625 C 4.585938 21.011719 2.800781 17.589844 2.644531 13.917969 C 2.644531 7.253906 8.109375 1.851562 14.851562 1.851562 C 21.59375 1.851562 27.058594 7.253906 27.058594 13.917969 C 26.902344 17.589844 25.121094 21.011719 22.183594 23.265625 L 19.320312 25.460938 C 18.15625 26.355469 17.28125 27.5625 16.804688 28.941406 L 16.46875 29.910156 C 16.230469 30.59375 15.582031 31.054688 14.851562 31.054688 C 14.121094 31.054688 13.472656 30.59375 13.234375 29.910156 Z M 14.851562 35.15625 C 12.15625 35.15625 9.96875 34.832031 9.96875 34.433594 C 9.96875 34.03125 12.15625 33.707031 14.851562 33.707031 C 17.546875 33.707031 19.734375 34.03125 19.734375 34.433594 C 19.734375 34.832031 17.546875 35.15625 14.851562 35.15625 Z M 14.851562 23.332031 C 20.246094 23.332031 24.617188 19.007812 24.617188 13.675781 C 24.617188 8.34375 20.246094 4.023438 14.851562 4.023438 C 9.460938 4.023438 5.085938 8.34375 5.085938 13.675781 C 5.085938 19.007812 9.460938 23.332031 14.851562 23.332031 Z M 13.074219 12.84375 L 13.515625 20.402344 C 13.542969 20.851562 13.050781 21.238281 12.496094 21.261719 C 11.941406 21.285156 11.410156 20.941406 11.386719 20.492188 C 11.382812 20.460938 11.382812 20.429688 11.386719 20.402344 L 11.828125 12.84375 C 11.046875 12.671875 10.703125 11.980469 10.703125 11.15625 L 10.703125 7.230469 C 10.703125 7.058594 10.84375 6.917969 11.019531 6.917969 C 11.195312 6.917969 11.335938 7.058594 11.335938 7.230469 L 11.335938 10.429688 C 11.335938 10.519531 11.40625 10.589844 11.496094 10.589844 C 11.585938 10.589844 11.65625 10.519531 11.65625 10.429688 L 11.65625 7.230469 C 11.65625 7.058594 11.796875 6.917969 11.972656 6.917969 C 12.148438 6.917969 12.289062 7.058594 12.289062 7.230469 L 12.289062 10.429688 C 12.289062 10.519531 12.363281 10.589844 12.449219 10.589844 C 12.539062 10.589844 12.609375 10.519531 12.609375 10.429688 L 12.609375 7.230469 C 12.609375 7.058594 12.753906 6.917969 12.925781 6.917969 C 13.101562 6.917969 13.246094 7.058594 13.246094 7.230469 L 13.246094 10.429688 C 13.246094 10.519531 13.316406 10.589844 13.40625 10.589844 C 13.492188 10.589844 13.5625 10.519531 13.5625 10.429688 L 13.5625 7.230469 C 13.5625 7.058594 13.707031 6.917969 13.882812 6.917969 C 14.058594 6.917969 14.199219 7.058594 14.199219 7.230469 L 14.199219 11.15625 C 14.199219 11.980469 13.855469 12.671875 13.074219 12.84375 Z M 19.246094 14.859375 L 19.246094 20.265625 C 19.246094 20.816406 18.742188 21.261719 18.125 21.261719 C 17.503906 21.261719 17 20.816406 17 20.265625 L 17 15.300781 L 16.265625 15.0625 L 16.265625 9.777344 C 16.265625 8.199219 17.464844 6.917969 19.246094 6.917969 Z M 19.246094 14.859375 " fill-opacity="1" fill-rule="nonzero"/></g><g fill="#ffffff" fill-opacity="1"><g transform="translate(29.234345, 20.163241)"><g><path d="M 8.828125 -0.203125 L 8.9375 -0.203125 C 9.269531 -0.203125 9.4375 -0.351562 9.4375 -0.65625 C 9.4375 -0.769531 9.414062 -0.890625 9.375 -1.015625 L 7.515625 -6.046875 L 3.890625 -6.046875 L 2.09375 -1.09375 C 2.050781 -0.988281 2.03125 -0.882812 2.03125 -0.78125 C 2.03125 -0.601562 2.078125 -0.460938 2.171875 -0.359375 C 2.265625 -0.253906 2.367188 -0.203125 2.484375 -0.203125 L 2.59375 -0.203125 L 2.59375 0 L 0.296875 0 L 0.296875 -0.203125 L 0.390625 -0.203125 C 0.566406 -0.203125 0.738281 -0.304688 0.90625 -0.515625 C 1.082031 -0.734375 1.226562 -0.988281 1.34375 -1.28125 L 6.078125 -13.90625 L 10.71875 -1.40625 C 10.8125 -1.132812 10.941406 -0.863281 11.109375 -0.59375 C 11.285156 -0.332031 11.515625 -0.203125 11.796875 -0.203125 L 11.890625 -0.203125 L 11.890625 0 L 8.828125 0 Z M 4.09375 -6.75 L 7.28125 -6.75 L 5.6875 -11.0625 Z M 4.09375 -6.75 "/></g></g></g><g fill="#ffffff" fill-opacity="1"><g transform="translate(43.377197, 20.163241)"><g><path d="M 0.9375 -0.203125 L 1.03125 -0.203125 C 1.144531 -0.203125 1.242188 -0.238281 1.328125 -0.3125 C 1.410156 -0.394531 1.484375 -0.488281 1.546875 -0.59375 C 1.609375 -0.707031 1.65625 -0.828125 1.6875 -0.953125 C 1.71875 -1.078125 1.734375 -1.191406 1.734375 -1.296875 L 1.734375 -12.375 C 1.734375 -12.46875 1.71875 -12.578125 1.6875 -12.703125 C 1.65625 -12.828125 1.609375 -12.941406 1.546875 -13.046875 C 1.484375 -13.160156 1.410156 -13.253906 1.328125 -13.328125 C 1.242188 -13.410156 1.144531 -13.453125 1.03125 -13.453125 L 0.9375 -13.453125 L 0.9375 -13.65625 L 3.90625 -13.65625 L 3.90625 -13.453125 L 3.8125 -13.453125 C 3.695312 -13.453125 3.597656 -13.410156 3.515625 -13.328125 C 3.429688 -13.253906 3.363281 -13.160156 3.3125 -13.046875 C 3.257812 -12.941406 3.210938 -12.828125 3.171875 -12.703125 C 3.140625 -12.578125 3.125 -12.46875 3.125 -12.375 L 3.125 -0.765625 L 7.65625 -0.765625 C 7.914062 -0.765625 8.140625 -0.828125 8.328125 -0.953125 C 8.523438 -1.078125 8.6875 -1.234375 8.8125 -1.421875 C 8.945312 -1.609375 9.046875 -1.804688 9.109375 -2.015625 C 9.171875 -2.234375 9.203125 -2.429688 9.203125 -2.609375 L 9.40625 -2.609375 L 9.40625 0 L 0.9375 0 Z M 0.9375 -0.203125 "/></g></g></g><g fill="#ffffff" fill-opacity="1"><g transform="translate(54.935678, 20.163241)"><g><path d="M 0.90625 -13.65625 L 3.84375 -13.65625 C 5.375 -13.65625 6.535156 -13.359375 7.328125 -12.765625 C 8.117188 -12.179688 8.515625 -11.351562 8.515625 -10.28125 C 8.515625 -9.695312 8.378906 -9.175781 8.109375 -8.71875 C 7.835938 -8.269531 7.472656 -7.890625 7.015625 -7.578125 C 6.566406 -7.265625 6.0625 -7.023438 5.5 -6.859375 C 4.945312 -6.703125 4.394531 -6.625 3.84375 -6.625 L 3.0625 -6.625 L 3.0625 -1.34375 C 3.0625 -1.226562 3.070312 -1.101562 3.09375 -0.96875 C 3.125 -0.84375 3.171875 -0.722656 3.234375 -0.609375 C 3.296875 -0.503906 3.363281 -0.410156 3.4375 -0.328125 C 3.519531 -0.242188 3.613281 -0.203125 3.71875 -0.203125 L 3.828125 -0.203125 L 3.828125 0 L 0.90625 0 L 0.90625 -0.203125 L 1.015625 -0.203125 C 1.109375 -0.203125 1.195312 -0.242188 1.28125 -0.328125 C 1.363281 -0.410156 1.429688 -0.503906 1.484375 -0.609375 C 1.546875 -0.722656 1.585938 -0.84375 1.609375 -0.96875 C 1.640625 -1.101562 1.65625 -1.226562 1.65625 -1.34375 L 1.65625 -12.375 C 1.65625 -12.5625 1.597656 -12.78125 1.484375 -13.03125 C 1.378906 -13.28125 1.222656 -13.421875 1.015625 -13.453125 L 0.90625 -13.453125 Z M 3.0625 -12.9375 L 3.0625 -7.34375 L 3.6875 -7.34375 C 4.238281 -7.34375 4.726562 -7.414062 5.15625 -7.5625 C 5.59375 -7.71875 5.957031 -7.921875 6.25 -8.171875 C 6.539062 -8.421875 6.757812 -8.703125 6.90625 -9.015625 C 7.0625 -9.335938 7.140625 -9.660156 7.140625 -9.984375 C 7.140625 -10.390625 7.070312 -10.765625 6.9375 -11.109375 C 6.8125 -11.460938 6.597656 -11.773438 6.296875 -12.046875 C 6.003906 -12.316406 5.613281 -12.53125 5.125 -12.6875 C 4.644531 -12.851562 4.050781 -12.9375 3.34375 -12.9375 Z M 3.0625 -12.9375 "/></g></g></g><g fill="#ffffff" fill-opacity="1"><g transform="translate(66.22538, 20.163241)"><g><path d="M 9.1875 -0.203125 L 9.28125 -0.203125 C 9.382812 -0.203125 9.476562 -0.238281 9.5625 -0.3125 C 9.644531 -0.394531 9.71875 -0.492188 9.78125 -0.609375 C 9.84375 -0.722656 9.882812 -0.84375 9.90625 -0.96875 C 9.9375 -1.101562 9.953125 -1.226562 9.953125 -1.34375 L 9.953125 -6.96875 L 3.328125 -6.96875 L 3.328125 -1.34375 C 3.328125 -1.226562 3.335938 -1.101562 3.359375 -0.96875 C 3.390625 -0.84375 3.429688 -0.722656 3.484375 -0.609375 C 3.546875 -0.503906 3.613281 -0.410156 3.6875 -0.328125 C 3.769531 -0.242188 3.863281 -0.203125 3.96875 -0.203125 L 4.078125 -0.203125 L 4.078125 0 L 1.171875 0 L 1.171875 -0.203125 L 1.28125 -0.203125 C 1.375 -0.203125 1.460938 -0.238281 1.546875 -0.3125 C 1.628906 -0.394531 1.703125 -0.492188 1.765625 -0.609375 C 1.828125 -0.722656 1.867188 -0.84375 1.890625 -0.96875 C 1.921875 -1.101562 1.9375 -1.226562 1.9375 -1.34375 L 1.9375 -12.375 C 1.9375 -12.46875 1.921875 -12.578125 1.890625 -12.703125 C 1.867188 -12.828125 1.832031 -12.941406 1.78125 -13.046875 C 1.726562 -13.160156 1.660156 -13.253906 1.578125 -13.328125 C 1.492188 -13.410156 1.394531 -13.453125 1.28125 -13.453125 L 1.171875 -13.453125 L 1.171875 -13.65625 L 4.078125 -13.65625 L 4.078125 -13.453125 L 3.96875 -13.453125 C 3.863281 -13.453125 3.769531 -13.410156 3.6875 -13.328125 C 3.601562 -13.253906 3.535156 -13.160156 3.484375 -13.046875 C 3.429688 -12.941406 3.390625 -12.828125 3.359375 -12.703125 C 3.335938 -12.578125 3.328125 -12.46875 3.328125 -12.375 L 3.328125 -7.703125 L 9.953125 -7.703125 L 9.953125 -12.375 C 9.953125 -12.46875 9.9375 -12.578125 9.90625 -12.703125 C 9.882812 -12.828125 9.84375 -12.941406 9.78125 -13.046875 C 9.726562 -13.160156 9.660156 -13.253906 9.578125 -13.328125 C 9.492188 -13.410156 9.394531 -13.453125 9.28125 -13.453125 L 9.1875 -13.453125 L 9.1875 -13.65625 L 12.078125 -13.65625 L 12.078125 -13.453125 L 11.984375 -13.453125 C 11.867188 -13.453125 11.769531 -13.410156 11.6875 -13.328125 C 11.601562 -13.253906 11.535156 -13.160156 11.484375 -13.046875 C 11.441406 -12.941406 11.40625 -12.828125 11.375 -12.703125 C 11.351562 -12.578125 11.34375 -12.46875 11.34375 -12.375 L 11.34375 -1.34375 C 11.34375 -1.226562 11.359375 -1.101562 11.390625 -0.96875 C 11.421875 -0.84375 11.460938 -0.722656 11.515625 -0.609375 C 11.578125 -0.503906 11.644531 -0.410156 11.71875 -0.328125 C 11.789062 -0.242188 11.878906 -0.203125 11.984375 -0.203125 L 12.078125 -0.203125 L 12.078125 0 L 9.1875 0 Z M 9.1875 -0.203125 "/></g></g></g><g fill="#ffffff" fill-opacity="1"><g transform="translate(81.029836, 20.163241)"><g><path d="M 8.828125 -0.203125 L 8.9375 -0.203125 C 9.269531 -0.203125 9.4375 -0.351562 9.4375 -0.65625 C 9.4375 -0.769531 9.414062 -0.890625 9.375 -1.015625 L 7.515625 -6.046875 L 3.890625 -6.046875 L 2.09375 -1.09375 C 2.050781 -0.988281 2.03125 -0.882812 2.03125 -0.78125 C 2.03125 -0.601562 2.078125 -0.460938 2.171875 -0.359375 C 2.265625 -0.253906 2.367188 -0.203125 2.484375 -0.203125 L 2.59375 -0.203125 L 2.59375 0 L 0.296875 0 L 0.296875 -0.203125 L 0.390625 -0.203125 C 0.566406 -0.203125 0.738281 -0.304688 0.90625 -0.515625 C 1.082031 -0.734375 1.226562 -0.988281 1.34375 -1.28125 L 6.078125 -13.90625 L 10.71875 -1.40625 C 10.8125 -1.132812 10.941406 -0.863281 11.109375 -0.59375 C 11.285156 -0.332031 11.515625 -0.203125 11.796875 -0.203125 L 11.890625 -0.203125 L 11.890625 0 L 8.828125 0 Z M 4.09375 -6.75 L 7.28125 -6.75 L 5.6875 -11.0625 Z M 4.09375 -6.75 "/></g></g></g><g fill="#ffffff" fill-opacity="1"><g transform="translate(95.172687, 20.163241)"><g><path d="M 5.125 -4.875 C 5.625 -4.875 6.0625 -4.960938 6.4375 -5.140625 C 6.8125 -5.316406 7.117188 -5.546875 7.359375 -5.828125 C 7.597656 -6.117188 7.773438 -6.453125 7.890625 -6.828125 C 8.003906 -7.203125 8.0625 -7.585938 8.0625 -7.984375 C 8.0625 -8.460938 7.988281 -8.941406 7.84375 -9.421875 C 7.707031 -9.910156 7.492188 -10.34375 7.203125 -10.71875 C 6.921875 -11.101562 6.578125 -11.414062 6.171875 -11.65625 C 5.765625 -11.894531 5.300781 -12.015625 4.78125 -12.015625 C 4.3125 -12.015625 3.898438 -11.921875 3.546875 -11.734375 C 3.191406 -11.546875 2.894531 -11.296875 2.65625 -10.984375 C 2.414062 -10.679688 2.234375 -10.328125 2.109375 -9.921875 C 1.992188 -9.523438 1.9375 -9.117188 1.9375 -8.703125 C 1.9375 -8.234375 2.007812 -7.769531 2.15625 -7.3125 C 2.300781 -6.863281 2.507812 -6.457031 2.78125 -6.09375 C 3.050781 -5.726562 3.378906 -5.429688 3.765625 -5.203125 C 4.160156 -4.984375 4.613281 -4.875 5.125 -4.875 Z M 2.21875 -1.46875 C 2.4375 -1.195312 2.695312 -0.976562 3 -0.8125 C 3.3125 -0.644531 3.609375 -0.585938 3.890625 -0.640625 C 4.484375 -0.640625 5.003906 -0.773438 5.453125 -1.046875 C 5.910156 -1.328125 6.300781 -1.691406 6.625 -2.140625 C 6.945312 -2.597656 7.203125 -3.09375 7.390625 -3.625 C 7.578125 -4.15625 7.707031 -4.648438 7.78125 -5.109375 C 7.375 -4.753906 6.925781 -4.503906 6.4375 -4.359375 C 5.945312 -4.222656 5.425781 -4.15625 4.875 -4.15625 C 4.175781 -4.15625 3.5625 -4.273438 3.03125 -4.515625 C 2.5 -4.753906 2.054688 -5.070312 1.703125 -5.46875 C 1.347656 -5.863281 1.082031 -6.316406 0.90625 -6.828125 C 0.738281 -7.335938 0.65625 -7.863281 0.65625 -8.40625 C 0.65625 -8.9375 0.742188 -9.460938 0.921875 -9.984375 C 1.109375 -10.515625 1.378906 -10.984375 1.734375 -11.390625 C 2.097656 -11.796875 2.546875 -12.125 3.078125 -12.375 C 3.609375 -12.625 4.222656 -12.75 4.921875 -12.75 C 5.710938 -12.75 6.382812 -12.601562 6.9375 -12.3125 C 7.5 -12.019531 7.957031 -11.628906 8.3125 -11.140625 C 8.675781 -10.648438 8.941406 -10.082031 9.109375 -9.4375 C 9.285156 -8.789062 9.375 -8.113281 9.375 -7.40625 C 9.375 -6.5 9.273438 -5.585938 9.078125 -4.671875 C 8.890625 -3.753906 8.578125 -2.929688 8.140625 -2.203125 C 7.703125 -1.472656 7.128906 -0.878906 6.421875 -0.421875 C 5.710938 0.0234375 4.847656 0.25 3.828125 0.25 C 3.628906 0.25 3.382812 0.226562 3.09375 0.1875 C 2.8125 0.144531 2.585938 0.109375 2.421875 0.078125 C 2.328125 0.0664062 2.226562 0.0507812 2.125 0.03125 C 2.019531 0.0195312 1.976562 0.015625 2 0.015625 L 2 -1.46875 Z M 2.21875 -1.46875 "/></g></g></g><g fill="#ffffff" fill-opacity="1"><g transform="translate(107.268716, 20.163241)"><g><path d="M 3.75 0 L 2.765625 0 L 7.21875 -11.5625 L 1.828125 -11.5625 C 1.660156 -11.5625 1.488281 -11.550781 1.3125 -11.53125 C 1.144531 -11.507812 0.988281 -11.460938 0.84375 -11.390625 C 0.695312 -11.316406 0.578125 -11.195312 0.484375 -11.03125 C 0.398438 -10.875 0.359375 -10.664062 0.359375 -10.40625 L 0.140625 -10.40625 L 0.140625 -12.71875 L 8.625 -12.71875 Z M 3.75 0 "/></g></g></g><g fill="#e4c590" fill-opacity="1"><g transform="translate(31.225132, 30.565745)"><g><path d="M 1.828125 -0.09375 L 1.890625 -0.09375 L 1.890625 0 L 0.453125 0 L 0.453125 -0.09375 L 0.5 -0.09375 C 0.550781 -0.09375 0.597656 -0.113281 0.640625 -0.15625 C 0.679688 -0.195312 0.71875 -0.242188 0.75 -0.296875 C 0.78125 -0.359375 0.800781 -0.421875 0.8125 -0.484375 C 0.820312 -0.546875 0.828125 -0.601562 0.828125 -0.65625 L 0.828125 -6.0625 C 0.828125 -6.101562 0.820312 -6.15625 0.8125 -6.21875 C 0.800781 -6.28125 0.78125 -6.335938 0.75 -6.390625 C 0.71875 -6.441406 0.679688 -6.484375 0.640625 -6.515625 C 0.597656 -6.554688 0.550781 -6.578125 0.5 -6.578125 L 0.453125 -6.578125 L 0.453125 -6.6875 L 2.21875 -6.6875 C 2.894531 -6.6875 3.414062 -6.550781 3.78125 -6.28125 C 4.144531 -6.019531 4.328125 -5.632812 4.328125 -5.125 C 4.328125 -4.863281 4.285156 -4.632812 4.203125 -4.4375 C 4.117188 -4.25 4.003906 -4.085938 3.859375 -3.953125 C 3.722656 -3.816406 3.554688 -3.707031 3.359375 -3.625 C 3.171875 -3.539062 2.96875 -3.476562 2.75 -3.4375 L 3.484375 -2.3125 C 3.660156 -2.039062 3.835938 -1.773438 4.015625 -1.515625 C 4.203125 -1.265625 4.382812 -1 4.5625 -0.71875 C 4.601562 -0.65625 4.648438 -0.582031 4.703125 -0.5 C 4.765625 -0.425781 4.828125 -0.359375 4.890625 -0.296875 C 4.953125 -0.242188 5.019531 -0.195312 5.09375 -0.15625 C 5.164062 -0.113281 5.238281 -0.09375 5.3125 -0.09375 L 5.3125 0 L 4.875 0 C 4.601562 0 4.378906 -0.0625 4.203125 -0.1875 C 4.035156 -0.320312 3.894531 -0.476562 3.78125 -0.65625 C 3.476562 -1.101562 3.175781 -1.554688 2.875 -2.015625 C 2.582031 -2.472656 2.285156 -2.925781 1.984375 -3.375 C 1.910156 -3.375 1.832031 -3.378906 1.75 -3.390625 C 1.664062 -3.398438 1.585938 -3.414062 1.515625 -3.4375 L 1.515625 -0.65625 C 1.515625 -0.601562 1.519531 -0.546875 1.53125 -0.484375 C 1.539062 -0.421875 1.5625 -0.359375 1.59375 -0.296875 C 1.625 -0.242188 1.65625 -0.195312 1.6875 -0.15625 C 1.726562 -0.113281 1.773438 -0.09375 1.828125 -0.09375 Z M 1.515625 -6.34375 L 1.515625 -3.765625 L 1.5625 -3.765625 C 1.613281 -3.753906 1.695312 -3.75 1.8125 -3.75 C 1.9375 -3.75 2.085938 -3.75 2.265625 -3.75 C 2.398438 -3.75 2.546875 -3.769531 2.703125 -3.8125 C 2.867188 -3.851562 3.019531 -3.925781 3.15625 -4.03125 C 3.289062 -4.132812 3.40625 -4.269531 3.5 -4.4375 C 3.59375 -4.613281 3.640625 -4.828125 3.640625 -5.078125 C 3.640625 -5.335938 3.585938 -5.546875 3.484375 -5.703125 C 3.390625 -5.867188 3.253906 -6 3.078125 -6.09375 C 2.910156 -6.1875 2.703125 -6.25 2.453125 -6.28125 C 2.210938 -6.320312 1.945312 -6.34375 1.65625 -6.34375 Z M 1.515625 -6.34375 "/></g></g></g><g fill="#e4c590" fill-opacity="1"><g transform="translate(39.878014, 30.565745)"><g><path d="M 0.453125 -0.09375 L 0.5 -0.09375 C 0.5625 -0.09375 0.609375 -0.113281 0.640625 -0.15625 C 0.679688 -0.195312 0.71875 -0.242188 0.75 -0.296875 C 0.78125 -0.347656 0.800781 -0.40625 0.8125 -0.46875 C 0.832031 -0.53125 0.84375 -0.585938 0.84375 -0.640625 L 0.84375 -6.0625 C 0.84375 -6.101562 0.832031 -6.15625 0.8125 -6.21875 C 0.800781 -6.28125 0.78125 -6.335938 0.75 -6.390625 C 0.71875 -6.441406 0.679688 -6.484375 0.640625 -6.515625 C 0.609375 -6.554688 0.5625 -6.578125 0.5 -6.578125 L 0.453125 -6.578125 L 0.453125 -6.6875 L 4.359375 -6.6875 L 4.359375 -5.734375 L 4.25 -5.734375 C 4.238281 -5.890625 4.175781 -6.023438 4.0625 -6.140625 C 3.957031 -6.265625 3.789062 -6.328125 3.5625 -6.328125 L 1.53125 -6.328125 L 1.53125 -3.765625 L 3.203125 -3.765625 C 3.359375 -3.765625 3.488281 -3.8125 3.59375 -3.90625 C 3.695312 -4 3.75 -4.113281 3.75 -4.25 L 3.859375 -4.25 L 3.859375 -2.984375 L 3.75 -2.984375 C 3.75 -3.097656 3.695312 -3.195312 3.59375 -3.28125 C 3.5 -3.375 3.367188 -3.421875 3.203125 -3.421875 L 1.53125 -3.421875 L 1.53125 -0.359375 L 3.75 -0.359375 C 3.875 -0.359375 3.984375 -0.382812 4.078125 -0.4375 C 4.171875 -0.5 4.25 -0.570312 4.3125 -0.65625 C 4.382812 -0.75 4.429688 -0.84375 4.453125 -0.9375 C 4.484375 -1.03125 4.5 -1.113281 4.5 -1.1875 L 4.609375 -1.1875 L 4.609375 0 L 0.453125 0 Z M 0.453125 -0.09375 "/></g></g></g><g fill="#e4c590" fill-opacity="1"><g transform="translate(47.974355, 30.565745)"><g><path d="M 4.5625 -1.796875 C 4.5625 -1.453125 4.492188 -1.160156 4.359375 -0.921875 C 4.222656 -0.679688 4.046875 -0.488281 3.828125 -0.34375 C 3.617188 -0.195312 3.378906 -0.0859375 3.109375 -0.015625 C 2.847656 0.046875 2.582031 0.078125 2.3125 0.078125 C 2.039062 0.078125 1.804688 0.0507812 1.609375 0 C 1.421875 -0.0507812 1.242188 -0.101562 1.078125 -0.15625 C 0.972656 -0.1875 0.875 -0.210938 0.78125 -0.234375 C 0.695312 -0.253906 0.613281 -0.265625 0.53125 -0.265625 L 0.53125 -1.421875 L 0.625 -1.421875 C 0.625 -1.171875 0.6875 -0.96875 0.8125 -0.8125 C 0.945312 -0.664062 1.101562 -0.550781 1.28125 -0.46875 C 1.457031 -0.382812 1.632812 -0.328125 1.8125 -0.296875 C 1.988281 -0.273438 2.117188 -0.265625 2.203125 -0.265625 C 2.484375 -0.265625 2.726562 -0.304688 2.9375 -0.390625 C 3.15625 -0.484375 3.332031 -0.597656 3.46875 -0.734375 C 3.601562 -0.867188 3.703125 -1.019531 3.765625 -1.1875 C 3.828125 -1.363281 3.859375 -1.539062 3.859375 -1.71875 C 3.859375 -1.9375 3.8125 -2.117188 3.71875 -2.265625 C 3.625 -2.421875 3.5 -2.554688 3.34375 -2.671875 C 3.195312 -2.785156 3.023438 -2.882812 2.828125 -2.96875 C 2.628906 -3.050781 2.429688 -3.128906 2.234375 -3.203125 C 2.003906 -3.296875 1.773438 -3.390625 1.546875 -3.484375 C 1.328125 -3.578125 1.128906 -3.691406 0.953125 -3.828125 C 0.773438 -3.972656 0.628906 -4.140625 0.515625 -4.328125 C 0.410156 -4.515625 0.359375 -4.753906 0.359375 -5.046875 C 0.359375 -5.335938 0.414062 -5.59375 0.53125 -5.8125 C 0.644531 -6.03125 0.796875 -6.210938 0.984375 -6.359375 C 1.179688 -6.503906 1.40625 -6.609375 1.65625 -6.671875 C 1.90625 -6.742188 2.15625 -6.78125 2.40625 -6.78125 C 2.582031 -6.78125 2.75 -6.769531 2.90625 -6.75 C 3.0625 -6.726562 3.207031 -6.695312 3.34375 -6.65625 C 3.46875 -6.632812 3.582031 -6.613281 3.6875 -6.59375 C 3.789062 -6.582031 3.894531 -6.578125 4 -6.578125 L 4 -5.53125 L 3.890625 -5.53125 C 3.878906 -5.882812 3.742188 -6.117188 3.484375 -6.234375 C 3.222656 -6.359375 2.859375 -6.421875 2.390625 -6.421875 C 2.117188 -6.421875 1.894531 -6.375 1.71875 -6.28125 C 1.550781 -6.195312 1.414062 -6.085938 1.3125 -5.953125 C 1.21875 -5.828125 1.148438 -5.6875 1.109375 -5.53125 C 1.066406 -5.382812 1.046875 -5.253906 1.046875 -5.140625 C 1.046875 -4.941406 1.085938 -4.773438 1.171875 -4.640625 C 1.265625 -4.503906 1.378906 -4.382812 1.515625 -4.28125 C 1.660156 -4.1875 1.820312 -4.097656 2 -4.015625 C 2.1875 -3.929688 2.382812 -3.851562 2.59375 -3.78125 C 2.820312 -3.695312 3.050781 -3.601562 3.28125 -3.5 C 3.519531 -3.394531 3.734375 -3.269531 3.921875 -3.125 C 4.109375 -2.976562 4.257812 -2.796875 4.375 -2.578125 C 4.5 -2.367188 4.5625 -2.109375 4.5625 -1.796875 Z M 4.5625 -1.796875 "/></g></g></g><g fill="#e4c590" fill-opacity="1"><g transform="translate(56.121299, 30.565745)"><g><path d="M 3.015625 -0.09375 L 3.0625 -0.09375 L 3.0625 0 L 1.625 0 L 1.625 -0.09375 L 1.6875 -0.09375 C 1.738281 -0.09375 1.785156 -0.113281 1.828125 -0.15625 C 1.867188 -0.195312 1.898438 -0.242188 1.921875 -0.296875 C 1.953125 -0.359375 1.972656 -0.421875 1.984375 -0.484375 C 2.003906 -0.546875 2.015625 -0.601562 2.015625 -0.65625 L 2.015625 -6.3125 L 0.84375 -6.3125 C 0.726562 -6.3125 0.628906 -6.285156 0.546875 -6.234375 C 0.472656 -6.191406 0.40625 -6.132812 0.34375 -6.0625 C 0.289062 -5.988281 0.25 -5.910156 0.21875 -5.828125 C 0.195312 -5.742188 0.1875 -5.660156 0.1875 -5.578125 L 0.09375 -5.578125 L 0.09375 -6.6875 L 4.640625 -6.6875 L 4.640625 -5.578125 L 4.53125 -5.578125 C 4.53125 -5.660156 4.515625 -5.742188 4.484375 -5.828125 C 4.460938 -5.910156 4.425781 -5.988281 4.375 -6.0625 C 4.320312 -6.132812 4.253906 -6.191406 4.171875 -6.234375 C 4.085938 -6.285156 3.992188 -6.3125 3.890625 -6.3125 L 2.6875 -6.3125 L 2.6875 -0.65625 C 2.6875 -0.601562 2.691406 -0.546875 2.703125 -0.484375 C 2.722656 -0.421875 2.75 -0.359375 2.78125 -0.296875 C 2.8125 -0.242188 2.84375 -0.195312 2.875 -0.15625 C 2.914062 -0.113281 2.960938 -0.09375 3.015625 -0.09375 Z M 3.015625 -0.09375 "/></g></g></g><g fill="#e4c590" fill-opacity="1"><g transform="translate(64.045619, 30.565745)"><g><path d="M 4.328125 -0.09375 L 4.375 -0.09375 C 4.53125 -0.09375 4.609375 -0.171875 4.609375 -0.328125 C 4.609375 -0.378906 4.601562 -0.4375 4.59375 -0.5 L 3.671875 -2.953125 L 1.90625 -2.953125 L 1.015625 -0.53125 C 1.003906 -0.476562 1 -0.429688 1 -0.390625 C 1 -0.296875 1.019531 -0.222656 1.0625 -0.171875 C 1.113281 -0.117188 1.164062 -0.09375 1.21875 -0.09375 L 1.265625 -0.09375 L 1.265625 0 L 0.140625 0 L 0.140625 -0.09375 L 0.1875 -0.09375 C 0.28125 -0.09375 0.367188 -0.144531 0.453125 -0.25 C 0.535156 -0.363281 0.601562 -0.488281 0.65625 -0.625 L 2.984375 -6.796875 L 5.25 -0.6875 C 5.289062 -0.550781 5.351562 -0.414062 5.4375 -0.28125 C 5.519531 -0.15625 5.628906 -0.09375 5.765625 -0.09375 L 5.828125 -0.09375 L 5.828125 0 L 4.328125 0 Z M 2 -3.296875 L 3.5625 -3.296875 L 2.78125 -5.421875 Z M 2 -3.296875 "/></g></g></g><g fill="#e4c590" fill-opacity="1"><g transform="translate(73.204451, 30.565745)"><g><path d="M 0.453125 -6.6875 L 1.890625 -6.6875 L 1.890625 -6.578125 L 1.84375 -6.578125 C 1.789062 -6.578125 1.742188 -6.554688 1.703125 -6.515625 C 1.660156 -6.484375 1.625 -6.441406 1.59375 -6.390625 C 1.5625 -6.335938 1.539062 -6.28125 1.53125 -6.21875 C 1.519531 -6.15625 1.515625 -6.101562 1.515625 -6.0625 L 1.515625 -2.0625 C 1.515625 -1.789062 1.539062 -1.546875 1.59375 -1.328125 C 1.644531 -1.109375 1.734375 -0.914062 1.859375 -0.75 C 1.992188 -0.582031 2.164062 -0.453125 2.375 -0.359375 C 2.582031 -0.273438 2.835938 -0.234375 3.140625 -0.234375 C 3.472656 -0.234375 3.738281 -0.285156 3.9375 -0.390625 C 4.144531 -0.503906 4.300781 -0.644531 4.40625 -0.8125 C 4.519531 -0.988281 4.59375 -1.179688 4.625 -1.390625 C 4.65625 -1.609375 4.671875 -1.820312 4.671875 -2.03125 L 4.671875 -6.0625 C 4.671875 -6.101562 4.664062 -6.15625 4.65625 -6.21875 C 4.644531 -6.28125 4.625 -6.335938 4.59375 -6.390625 C 4.5625 -6.441406 4.523438 -6.484375 4.484375 -6.515625 C 4.441406 -6.554688 4.398438 -6.578125 4.359375 -6.578125 L 4.296875 -6.578125 L 4.296875 -6.6875 L 5.40625 -6.6875 L 5.40625 -6.578125 L 5.359375 -6.578125 C 5.304688 -6.578125 5.257812 -6.554688 5.21875 -6.515625 C 5.175781 -6.484375 5.140625 -6.441406 5.109375 -6.390625 C 5.085938 -6.335938 5.066406 -6.28125 5.046875 -6.21875 C 5.035156 -6.15625 5.03125 -6.101562 5.03125 -6.0625 L 5.03125 -2.0625 C 5.03125 -1.625 4.972656 -1.265625 4.859375 -0.984375 C 4.753906 -0.703125 4.609375 -0.476562 4.421875 -0.3125 C 4.234375 -0.15625 4.007812 -0.0507812 3.75 0 C 3.5 0.0625 3.234375 0.09375 2.953125 0.09375 C 2.648438 0.09375 2.367188 0.0625 2.109375 0 C 1.847656 -0.0625 1.625 -0.171875 1.4375 -0.328125 C 1.25 -0.492188 1.097656 -0.71875 0.984375 -1 C 0.878906 -1.28125 0.828125 -1.632812 0.828125 -2.0625 L 0.828125 -6.0625 C 0.828125 -6.101562 0.820312 -6.15625 0.8125 -6.21875 C 0.800781 -6.28125 0.78125 -6.335938 0.75 -6.390625 C 0.71875 -6.441406 0.679688 -6.484375 0.640625 -6.515625 C 0.597656 -6.554688 0.550781 -6.578125 0.5 -6.578125 L 0.453125 -6.578125 Z M 0.453125 -6.6875 "/></g></g></g><g fill="#e4c590" fill-opacity="1"><g transform="translate(82.302567, 30.565745)"><g><path d="M 1.828125 -0.09375 L 1.890625 -0.09375 L 1.890625 0 L 0.453125 0 L 0.453125 -0.09375 L 0.5 -0.09375 C 0.550781 -0.09375 0.597656 -0.113281 0.640625 -0.15625 C 0.679688 -0.195312 0.71875 -0.242188 0.75 -0.296875 C 0.78125 -0.359375 0.800781 -0.421875 0.8125 -0.484375 C 0.820312 -0.546875 0.828125 -0.601562 0.828125 -0.65625 L 0.828125 -6.0625 C 0.828125 -6.101562 0.820312 -6.15625 0.8125 -6.21875 C 0.800781 -6.28125 0.78125 -6.335938 0.75 -6.390625 C 0.71875 -6.441406 0.679688 -6.484375 0.640625 -6.515625 C 0.597656 -6.554688 0.550781 -6.578125 0.5 -6.578125 L 0.453125 -6.578125 L 0.453125 -6.6875 L 2.21875 -6.6875 C 2.894531 -6.6875 3.414062 -6.550781 3.78125 -6.28125 C 4.144531 -6.019531 4.328125 -5.632812 4.328125 -5.125 C 4.328125 -4.863281 4.285156 -4.632812 4.203125 -4.4375 C 4.117188 -4.25 4.003906 -4.085938 3.859375 -3.953125 C 3.722656 -3.816406 3.554688 -3.707031 3.359375 -3.625 C 3.171875 -3.539062 2.96875 -3.476562 2.75 -3.4375 L 3.484375 -2.3125 C 3.660156 -2.039062 3.835938 -1.773438 4.015625 -1.515625 C 4.203125 -1.265625 4.382812 -1 4.5625 -0.71875 C 4.601562 -0.65625 4.648438 -0.582031 4.703125 -0.5 C 4.765625 -0.425781 4.828125 -0.359375 4.890625 -0.296875 C 4.953125 -0.242188 5.019531 -0.195312 5.09375 -0.15625 C 5.164062 -0.113281 5.238281 -0.09375 5.3125 -0.09375 L 5.3125 0 L 4.875 0 C 4.601562 0 4.378906 -0.0625 4.203125 -0.1875 C 4.035156 -0.320312 3.894531 -0.476562 3.78125 -0.65625 C 3.476562 -1.101562 3.175781 -1.554688 2.875 -2.015625 C 2.582031 -2.472656 2.285156 -2.925781 1.984375 -3.375 C 1.910156 -3.375 1.832031 -3.378906 1.75 -3.390625 C 1.664062 -3.398438 1.585938 -3.414062 1.515625 -3.4375 L 1.515625 -0.65625 C 1.515625 -0.601562 1.519531 -0.546875 1.53125 -0.484375 C 1.539062 -0.421875 1.5625 -0.359375 1.59375 -0.296875 C 1.625 -0.242188 1.65625 -0.195312 1.6875 -0.15625 C 1.726562 -0.113281 1.773438 -0.09375 1.828125 -0.09375 Z M 1.515625 -6.34375 L 1.515625 -3.765625 L 1.5625 -3.765625 C 1.613281 -3.753906 1.695312 -3.75 1.8125 -3.75 C 1.9375 -3.75 2.085938 -3.75 2.265625 -3.75 C 2.398438 -3.75 2.546875 -3.769531 2.703125 -3.8125 C 2.867188 -3.851562 3.019531 -3.925781 3.15625 -4.03125 C 3.289062 -4.132812 3.40625 -4.269531 3.5 -4.4375 C 3.59375 -4.613281 3.640625 -4.828125 3.640625 -5.078125 C 3.640625 -5.335938 3.585938 -5.546875 3.484375 -5.703125 C 3.390625 -5.867188 3.253906 -6 3.078125 -6.09375 C 2.910156 -6.1875 2.703125 -6.25 2.453125 -6.28125 C 2.210938 -6.320312 1.945312 -6.34375 1.65625 -6.34375 Z M 1.515625 -6.34375 "/></g></g></g><g fill="#e4c590" fill-opacity="1"><g transform="translate(90.955449, 30.565745)"><g><path d="M 4.328125 -0.09375 L 4.375 -0.09375 C 4.53125 -0.09375 4.609375 -0.171875 4.609375 -0.328125 C 4.609375 -0.378906 4.601562 -0.4375 4.59375 -0.5 L 3.671875 -2.953125 L 1.90625 -2.953125 L 1.015625 -0.53125 C 1.003906 -0.476562 1 -0.429688 1 -0.390625 C 1 -0.296875 1.019531 -0.222656 1.0625 -0.171875 C 1.113281 -0.117188 1.164062 -0.09375 1.21875 -0.09375 L 1.265625 -0.09375 L 1.265625 0 L 0.140625 0 L 0.140625 -0.09375 L 0.1875 -0.09375 C 0.28125 -0.09375 0.367188 -0.144531 0.453125 -0.25 C 0.535156 -0.363281 0.601562 -0.488281 0.65625 -0.625 L 2.984375 -6.796875 L 5.25 -0.6875 C 5.289062 -0.550781 5.351562 -0.414062 5.4375 -0.28125 C 5.519531 -0.15625 5.628906 -0.09375 5.765625 -0.09375 L 5.828125 -0.09375 L 5.828125 0 L 4.328125 0 Z M 2 -3.296875 L 3.5625 -3.296875 L 2.78125 -5.421875 Z M 2 -3.296875 "/></g></g></g><g fill="#e4c590" fill-opacity="1"><g transform="translate(100.114281, 30.565745)"><g><path d="M 1.515625 -0.09375 L 1.5625 -0.09375 L 1.5625 0 L 0.453125 0 L 0.453125 -0.09375 L 0.5 -0.09375 C 0.539062 -0.09375 0.582031 -0.113281 0.625 -0.15625 C 0.675781 -0.195312 0.710938 -0.242188 0.734375 -0.296875 C 0.765625 -0.359375 0.785156 -0.421875 0.796875 -0.484375 C 0.816406 -0.546875 0.828125 -0.601562 0.828125 -0.65625 L 0.828125 -6.0625 C 0.828125 -6.101562 0.820312 -6.15625 0.8125 -6.21875 C 0.800781 -6.28125 0.78125 -6.335938 0.75 -6.390625 C 0.726562 -6.441406 0.691406 -6.484375 0.640625 -6.515625 C 0.597656 -6.554688 0.539062 -6.578125 0.46875 -6.578125 L 0.421875 -6.578125 L 0.421875 -6.6875 L 1.453125 -6.6875 L 5.125 -0.890625 L 5.125 -6.0625 C 5.125 -6.101562 5.113281 -6.15625 5.09375 -6.21875 C 5.082031 -6.28125 5.0625 -6.335938 5.03125 -6.390625 C 5 -6.441406 4.960938 -6.484375 4.921875 -6.515625 C 4.878906 -6.554688 4.832031 -6.578125 4.78125 -6.578125 L 4.734375 -6.578125 L 4.734375 -6.6875 L 5.859375 -6.6875 L 5.859375 -6.578125 L 5.8125 -6.578125 C 5.757812 -6.578125 5.710938 -6.554688 5.671875 -6.515625 C 5.628906 -6.484375 5.59375 -6.441406 5.5625 -6.390625 C 5.53125 -6.335938 5.507812 -6.28125 5.5 -6.21875 C 5.488281 -6.15625 5.484375 -6.101562 5.484375 -6.0625 L 5.484375 0 L 4.84375 0 L 1.1875 -5.8125 L 1.1875 -0.65625 C 1.1875 -0.601562 1.191406 -0.546875 1.203125 -0.484375 C 1.210938 -0.421875 1.234375 -0.359375 1.265625 -0.296875 C 1.296875 -0.242188 1.332031 -0.195312 1.375 -0.15625 C 1.414062 -0.113281 1.460938 -0.09375 1.515625 -0.09375 Z M 1.515625 -0.09375 "/></g></g></g><g fill="#e4c590" fill-opacity="1"><g transform="translate(109.657621, 30.565745)"><g><path d="M 3.015625 -0.09375 L 3.0625 -0.09375 L 3.0625 0 L 1.625 0 L 1.625 -0.09375 L 1.6875 -0.09375 C 1.738281 -0.09375 1.785156 -0.113281 1.828125 -0.15625 C 1.867188 -0.195312 1.898438 -0.242188 1.921875 -0.296875 C 1.953125 -0.359375 1.972656 -0.421875 1.984375 -0.484375 C 2.003906 -0.546875 2.015625 -0.601562 2.015625 -0.65625 L 2.015625 -6.3125 L 0.84375 -6.3125 C 0.726562 -6.3125 0.628906 -6.285156 0.546875 -6.234375 C 0.472656 -6.191406 0.40625 -6.132812 0.34375 -6.0625 C 0.289062 -5.988281 0.25 -5.910156 0.21875 -5.828125 C 0.195312 -5.742188 0.1875 -5.660156 0.1875 -5.578125 L 0.09375 -5.578125 L 0.09375 -6.6875 L 4.640625 -6.6875 L 4.640625 -5.578125 L 4.53125 -5.578125 C 4.53125 -5.660156 4.515625 -5.742188 4.484375 -5.828125 C 4.460938 -5.910156 4.425781 -5.988281 4.375 -6.0625 C 4.320312 -6.132812 4.253906 -6.191406 4.171875 -6.234375 C 4.085938 -6.285156 3.992188 -6.3125 3.890625 -6.3125 L 2.6875 -6.3125 L 2.6875 -0.65625 C 2.6875 -0.601562 2.691406 -0.546875 2.703125 -0.484375 C 2.722656 -0.421875 2.75 -0.359375 2.78125 -0.296875 C 2.8125 -0.242188 2.84375 -0.195312 2.875 -0.15625 C 2.914062 -0.113281 2.960938 -0.09375 3.015625 -0.09375 Z M 3.015625 -0.09375 "/></g></g></g></svg>